PathFileType	4	(X/Y/Z)	Shrugging.trc																																																																									
DataRate	CameraRate	NumFrames	NumMarkers	Units	OrigDataRate	OrigDataStartFrame	OrigNumFrames																																																																					
100	100	7	25	mm	100	1535	2047																																																																					
Frame#	Time	AA			AI			Ant_Sh			CV7			GH			LAH			Lat_Sh			LCAJ			LPH			Post_Sh			RAH			RCAJ			RHLE			RHME			RPH			RUA			SJN			SXS			TS			TV8			centelbow			centpxt8			centijc7			centLPHRPH			ScapulaThoracicContactPt		
		X1	Y1	Z1	X2	Y2	Z2	X3	Y3	Z3	X4	Y4	Z4	X5	Y5	Z5	X6	Y6	Z6	X7	Y7	Z7	X8	Y8	Z8	X9	Y9	Z9	X10	Y10	Z10	X11	Y11	Z11	X12	Y12	Z12	X13	Y13	Z13	X14	Y14	Z14	X15	Y15	Z15	X16	Y16	Z16	X17	Y17	Z17	X18	Y18	Z18	X19	Y19	Z19	X20	Y20	Z20	X21	Y21	Z21	X22	Y22	Z22	X23	Y23	Z23	X24	Y24	Z24	X25	Y25	Z25
																																																																												
1536	15.35	-85.18561554	1543.440796	1079.268555	-137.2135773	1364.15271	1007.24585	25.53796196	1510.032959	1081.792236	-93.49055481	1597.696533	873.6558838	-30.19083977	1508.961426	1079.702637	129.0731812	1775.762329	840.2373047	-31.72827339	1525.47229	1112.240845	-23.56070709	1573.422852	701.6130371	-79.18417358	1731.330933	813.4760132	-113.1486435	1507.366211	1076.592407	113.4126282	1778.619019	935.4732666	-29.7101078	1576.045898	1051.125	-15.26156998	1233.452393	1186.506226	-44.20904541	1186.988037	1076.980713	-83.58462524	1735.494629	929.380249	-101.9758301	1359.159058	1131.482422	74.40873718	1519.502075	886.2960205	134.6915741	1345.971802	891.901001	-138.5272064	1505.6698	966.3252563	-102.9914322	1308.624756	872.2299194	-29.73530769	1210.220215	1131.743469	15.85007095	1327.298279	882.0654602	-9.540908813	1558.599304	879.9759521	-81.38439941	1733.412781	871.4281311	-120.3087997	1471.087769	1017.61322
1537	15.36	-85.55961609	1544.795654	1078.334839	-137.0722656	1364.623291	1007.16217	25.22310257	1511.595947	1081.157837	-93.14463806	1597.930786	873.701416	-30.60566521	1510.484253	1079.028564	129.2755432	1775.778931	840.1885986	-32.17432022	1526.921509	1111.575806	-23.97111511	1574.659546	702.4000854	-78.96656799	1731.300049	813.522522	-113.623703	1508.831177	1075.862183	113.540184	1778.641235	935.5128174	-30.02710915	1577.279297	1050.055298	-16.0065403	1235.02356	1187.292725	-44.36865234	1188.390869	1077.726685	-83.32053375	1735.508667	929.458252	-102.3999557	1360.476318	1131.342529	74.65231323	1519.622925	886.2888184	134.9117279	1346.019653	891.90271	-138.4828339	1506.077637	965.7805786	-102.7636566	1308.582764	872.2730713	-30.18759632	1211.707214	1132.509705	16.07403564	1327.301208	882.0878906	-9.246162415	1558.776855	879.9951172	-81.14355087	1733.404358	871.490387	-120.3715719	1471.832194	1017.092529
1538	15.37	-85.97446442	1546.16687	1077.540039	-136.7987366	1364.988281	1007.033508	24.7683239	1513.392334	1080.446289	-92.83735657	1598.128784	873.8775024	-30.98171043	1512.098755	1078.260986	129.4779205	1775.79541	840.1398926	-32.63974762	1528.831787	1110.653931	-24.80091286	1575.883911	703.4069824	-78.70199585	1731.35144	813.5987549	-114.2067566	1510.16748	1074.998657	113.8419647	1778.706177	935.4448853	-30.50674438	1578.48291	1049.165894	-16.39897919	1237.300171	1187.909302	-44.61940384	1190.065186	1078.548584	-83.09002686	1735.49939	929.5039063	-102.7544022	1362.385986	1131.112061	74.85865021	1519.798706	886.2699585	135.173172	1346.065308	891.8403931	-138.5038147	1506.608398	965.1668701	-102.5651779	1308.657837	872.2805786	-30.50919151	1213.682678	1133.228943	16.30399704	1327.361572	882.0604858	-8.98935318	1558.963745	880.0737305	-80.89601135	1733.425415	871.5513306	-120.4256719	1472.58785	1016.580139
1539	15.38	-86.60810852	1548.004272	1076.272705	-136.527359	1365.626343	1006.889038	24.30090523	1515.136719	1079.57312	-92.6062851	1598.354858	873.9888306	-31.52782249	1513.677368	1077.423706	129.7096405	1775.861084	840.109436	-33.22589874	1530.93042	1109.816772	-25.56473923	1577.509033	704.5730591	-78.44940948	1731.322998	813.6727905	-114.6699219	1511.50415	1074.2229	114.0692673	1778.748169	935.4419556	-31.00330734	1580.291504	1047.852539	-16.89064789	1239.605591	1188.761108	-44.76050186	1191.656494	1079.499512	-82.77331543	1735.467529	929.5610962	-103.2782516	1364.158936	1130.81958	75.08548737	1520.057007	886.2338257	135.4351349	1346.138062	891.8108521	-138.4573059	1507.115845	964.4695435	-102.34375	1308.758911	872.2136841	-30.82557487	1215.631042	1134.13031	16.54569244	1327.448486	882.0122681	-8.760398865	1559.205933	880.1113281	-80.61136246	1733.395264	871.6169434	-120.5309245	1473.582153	1015.877096
1540	15.39	-87.26811218	1549.816895	1075.17749	-136.1829224	1366.348145	1006.682373	23.55279732	1517.306274	1078.658447	-92.33634186	1598.560303	874.2098999	-32.12569427	1515.733276	1076.415161	129.7902222	1775.962769	840.006897	-33.92541885	1533.241455	1108.808228	-26.72065353	1579.223999	705.9343262	-78.15888977	1731.27356	813.7774658	-115.604454	1513.374878	1073.05188	114.4941177	1778.830078	935.3499146	-31.61398506	1581.960327	1046.447266	-17.45059395	1242.172852	1189.587769	-44.78526688	1193.889038	1080.432861	-82.46199036	1735.442749	929.6661377	-103.9152756	1366.471436	1130.569702	75.25366211	1520.353638	886.1419067	135.7944641	1346.249512	891.7009277	-138.473053	1507.560547	963.8035889	-102.0141449	1308.793213	872.262207	-31.11793041	1218.030945	1135.010315	16.89015961	1327.521362	881.9815674	-8.541339874	1559.45697	880.1759033	-80.31044006	1733.358154	871.7218018	-120.6413625	1474.575195	1015.221151
1541	15.4	-88.24350739	1551.961792	1073.678711	-135.6635437	1367.191528	1006.458252	22.70927048	1519.508301	1077.926025	-92.13449097	1598.720825	874.5024414	-32.84308243	1517.735962	1075.529663	129.7570648	1776.050293	839.7615356	-34.80315018	1535.798096	1107.609863	-27.9291153	1581.126465	707.3410034	-77.82058716	1731.167358	813.8538208	-116.3145981	1515.07312	1071.928955	114.8595428	1778.979858	935.2877197	-32.40688705	1583.9729	1044.860474	-17.76290703	1245.228882	1190.302246	-44.97558212	1196.163818	1081.913818	-82.14009857	1735.389526	929.6629028	-104.5973663	1368.81311	1130.168823	75.40059662	1520.636963	886.1486206	136.0586395	1346.37854	891.6557617	-138.5083618	1507.984131	963.2009277	-101.710228	1308.880981	872.2266235	-31.36924458	1220.69635	1136.108032	17.17420578	1327.629761	881.9411926	-8.366947174	1559.678894	880.325531	-79.98034286	1733.278442	871.7583618	-120.8051376	1475.712484	1014.445964
1542	15.41	-89.50977325	1554.512085	1072.487793	-135.1609039	1367.988525	1006.233154	21.8401165	1522.001587	1077.060669	-91.69322968	1598.936401	874.8744507	-33.68916321	1519.994995	1074.451782	129.9672089	1776.228271	839.7515259	-35.86093521	1538.477173	1106.462158	-29.36408615	1583.311157	709.0264282	-77.55786133	1731.101929	813.9379272	-117.263298	1516.975098	1070.525269	114.9819336	1779.107544	935.3608398	-33.27269363	1586.106812	1043.217896	-18.27336121	1248.516113	1190.97644	-45.54694366	1198.475098	1083.091309	-81.82447052	1735.276855	929.7206421	-105.2106552	1371.542725	1129.901733	75.50727081	1520.99353	886.1513062	136.3594208	1346.507568	891.5999756	-138.8963013	1508.693848	962.2485962	-101.3424759	1308.787842	872.2611694	-31.91015244	1223.495605	1137.033875	17.50847244	1327.647705	881.9305725	-8.092979431	1559.964966	880.5128784	-79.69116592	1733.189392	871.8292847	-121.1889928	1477.064819	1013.656514
